<?xml version="1.0" encoding="UTF-8"?>
<svg width="24px" height="24px" viewBox="0 0 24 24" version="1.1" xmlns="http://www.w3.org/2000/svg" xmlns:xlink="http://www.w3.org/1999/xlink">
    <!-- Generator: Sketch 55.2 (78181) - https://sketchapp.com -->
    <title>Artboard</title>
    <desc>Created with Sketch.</desc>
    <g id="Artboard" stroke="none" stroke-width="1" fill="none" fill-rule="evenodd">
        <path d="M22.083264,2 C22.589542,2 23,2.41035056 23,2.91662862 C23,3.42290668 22.5895957,3.83331095 22.0833177,3.83331095 L1.91668233,3.83331095 C1.41040427,3.83331095 1,3.42285297 1,2.91662862 C1,2.41040427 1.41040427,2 1.91668233,2 L22.083264,2 Z M22.083264,11 C22.589542,11 23,11.4104043 23,11.9166823 C23,12.4229604 22.5895957,12.8333647 22.0833177,12.8333647 L1.91668233,12.8333647 C1.41040427,12.8333647 1,12.4229604 1,11.9166823 C1,11.4104043 1.41040427,11 1.91668233,11 L22.083264,11 Z M22.083264,20 C22.589542,20 23,20.4104043 23,20.9166823 C23,21.4229604 22.5895957,21.8333647 22.0833177,21.8333647 L1.91668233,21.8333647 C1.41040427,21.8333647 1,21.4229604 1,20.9166823 C1,20.4104043 1.41040427,20 1.91668233,20 L22.083264,20 Z" id="Combined-Shape" fill="#FFFFFF" fill-rule="nonzero"></path>
    </g>
</svg>